<svg xmlns="http://www.w3.org/2000/svg" xmlns:xlink="http://www.w3.org/1999/xlink" width="270" height="160" viewBox="0 0 270 160">
    <defs>
        <path id="a" d="M0 1.076v116.767h73.85V1.076z"/>
        <path id="c" d="M0 158.943h269.431V1.264H0z"/>
    </defs>
    <g fill="none" fill-rule="evenodd">
        <path fill="#FFF" d="M15.72 152.75l.381-.45c.567.515 1.112.77 1.865.77.732 0 1.213-.39 1.213-.927v-.015c0-.506-.273-.793-1.415-1.037-1.25-.268-1.825-.676-1.825-1.572v-.013c0-.86.753-1.488 1.785-1.488.794 0 1.361.225 1.914.668l-.357.477c-.507-.415-1.012-.593-1.57-.593-.709 0-1.16.39-1.16.881v.013c0 .514.281.805 1.477 1.06 1.213.265 1.773.71 1.773 1.542v.015c0 .934-.779 1.542-1.859 1.542-.861 0-1.568-.287-2.222-.873zM28.236 148.664h-1.827v-.57h4.273v.57h-1.826v4.883h-.62zM46.386 156.48l.762-.66c.577.874 1.166 1.343 2.143 1.343 1.058 0 1.833-.763 1.833-2.255v-6.291h1.071v6.28c0 1.098-.32 1.931-.857 2.466-.52.51-1.23.778-2.06.778-1.407 0-2.304-.697-2.892-1.661M70.465 154.573l-2.129-4.788-2.14 4.788h4.269zm-2.61-6.022h.991l4.271 9.456h-1.138l-1.098-2.48h-5.1l-1.112 2.48h-1.084l4.27-9.456zM84.982 148.617h1.07l3.416 5.127 3.412-5.127h1.071v9.39h-1.056V150.4l-3.415 5.032h-.052l-3.415-5.017v7.592h-1.031zM106.619 148.617h6.775v.965h-5.717v3.209h5.114v.963h-5.114v3.288h5.784v.965h-6.842zM124.993 156.639l.656-.778c.978.888 1.916 1.328 3.213 1.328 1.259 0 2.089-.67 2.089-1.597v-.027c0-.872-.468-1.368-2.438-1.782-2.155-.47-3.146-1.168-3.146-2.71v-.03c0-1.473 1.3-2.56 3.08-2.56 1.366 0 2.343.388 3.294 1.153l-.616.818c-.872-.71-1.741-1.018-2.705-1.018-1.217 0-1.995.669-1.995 1.517v.024c0 .885.484 1.383 2.544 1.825 2.09.457 3.053 1.222 3.053 2.658v.026c0 1.608-1.34 2.655-3.2 2.655-1.486 0-2.704-.493-3.829-1.502"/>
        <g transform="translate(0 2.172)">
            <mask id="b" fill="#fff">
                <use xlink:href="#a"/>
            </mask>
            <path fill="#FFF" d="M68.332 38.156l.323-.236c3.752-2.731 4.416-7.515 4.856-10.682.85-6.133.109-11.401-2.262-16.106-3.472-6.883-9.854-8.866-15.638-9.898-3.283-.59-6.408.583-9.424 1.71-1.09.408-2.175.814-3.264 1.133-.593.177-1.14.887-1.168 1.52-.034.651-.037.718-1.302.762l-.235.007c-.703.031-1.587.57-2.002 1.053-.261.305-.376.626-.342.956.172 1.65-.483 2.45-2.6 3.174-.125.043-.272.08-.417.118-.593.154-1.33.348-1.688.99-.713 1.28-1.928 2.023-3.215 2.808-.917.561-1.864 1.142-2.677 1.944l-.406.402c-1.774 1.756-3.548 3.511-5.27 5.315-.79.829-1.524 1.712-2.184 2.51l-.769.918-.191.37a31.909 31.909 0 0 0-.394 1.762c-.255 1.245-.495 2.42-1.028 3.373-.394.704-.357 1.54-.327 2.278.019.45.048 1.133-.114 1.283-.02.02-.234.19-1.102.092l-1.13-.134.095 1.137c.042.498.06.986.078 1.461.042 1.093.082 2.127.369 3.151.716 2.587 1.56 5.175 2.378 7.678l.85 2.625c.118.364.277.86.574 1.288l1.344 1.94c1.52 2.202 3.04 4.404 4.634 6.55l.19.256c2.337 3.14 4.754 6.388 7.344 9.418 1.182 1.382 2.478 2.68 3.732 3.936 1.264 1.265 2.572 2.575 3.734 3.947.74.87 1.503 1.72 2.266 2.569 2.215 2.46 4.308 4.785 5.865 7.67.388.72.856 1.394 1.33 2.075.786 1.123 1.526 2.182 1.902 3.498.217.761-.115 1.496-.498 2.348-.483 1.068-1.073 2.378-.418 3.881l-1.361 1.419c-1.382 1.445-2.807 2.94-4.305 4.28-.194.173-.63.278-1.046.384-.592.147-1.262.313-1.8.765-2.406 2.015-5.298 2.656-8.36 3.332-1.209.266-2.453.542-3.67.91l.396-1.328-.95-.266c-2.502-.687-3.396-.303-4.368 1.913-.05.117-.108.223-.16.309l-.374.19c-.346.055-.696.125-1.054.19-1.204.228-2.452.472-3.245.12-2.059-.9-4.099-.87-6.07-.845-1.45.019-2.824.036-4.16-.305-1.66-.426-3.4-.41-5.073-.39-.388.003-.78 0-1.162.007l.076-1.32L0 113.438l1.405.058-.086 1.463 3.107.025-1.516 2.42 4.99.181c2.425.091 4.83.178 7.233.25.172.004.342.008.512.008.438 0 .876-.014 1.315-.032.394-.015.787-.03 1.18-.03 9.23-.003 17.347-1.142 24.814-3.478 5.505-1.717 10.13-4.012 14.14-7.013 2.934-2.202 4.762-6.745 3.995-9.926-1.128-4.656-3.98-8.36-6.622-11.368-1.776-2.023-3.677-3.983-5.514-5.878-1.738-1.792-3.533-3.645-5.209-5.534-4.05-4.563-7.479-8.688-10.487-12.611-2.289-2.986-4.538-6.37-6.876-10.34-.982-1.666-1.712-3.667-2.113-5.786-.444-2.35-.856-5.091-.534-7.6.367-2.847.944-6.09 2.451-8.567 2.058-3.375 4.85-6.748 8.075-9.75 3.853-3.594 7.42-6.225 10.904-8.047 2.77-1.447 5.998-2.26 9.12-3.044.92-.232 1.839-.463 2.747-.71 1.324-.355 2.626-.193 3.77.476 1.365.798 2.373 2.243 2.841 4.072.095.37.203.735.31 1.1.157.53.316 1.06.423 1.6.7 3.503 1.49 7.471-.13 11.345-.957 2.28-1.43 4.753-1.886 7.145l-.11.562c-.246 1.273.148 2.027.521 2.434.575.622 1.459.879 2.61.746.43-.052.946.087 1.544.238.33.083.669.171 1.016.235l.393.074z" mask="url(#b)"/>
        </g>
        <path fill="#FFF" d="M141.802 98.29c-.3-2.139-.25-4.329-.353-6.497l.226-.002c0-1.91.009-3.818-.001-5.729a4.954 4.954 0 0 0-3.176-4.637c-1.612-.635-3.8-.301-4.24.817-.913 2.33-1.798 4.691-2.45 7.105-.536 1.982-.38 4.196-2.292 5.6a.542.542 0 0 0-.187.338c-.282 2.522-2.155 4.22-3.428 6.16-1.324 2.021-3.204 3.733-5.051 5.336-1.331 1.155-4.055.118-4.614-1.588-1.339-4.082-2.551-8.152-2.153-12.584.29-3.218 1.683-6.066 2.421-9.122.067-.28.29-.531.468-.775 2.142-2.905 1.978-5.273-.54-7.727-1.85-1.803-4.115-1.706-5.812.236-.284.326-.688.561-.919.915-.434.667-.982 1.35-1.13 2.098-.625 3.176-1.027 6.372-1.78 9.55-1.28 5.419-1.253 11.093-.341 16.571.602 3.61 2.238 7.05 4.76 9.93 2.275 2.6 4.963 3.889 8.394 2.908 2.779-.794 5.14-2.296 6.9-4.653 1.827-2.448 3.628-4.918 5.51-7.325.225-.29 1.097-.486 1.296-.309 1.074.96 2.338 1.894 2.96 3.13 1.37 2.714 2.62 3.658 5.664 3.617 1.332-.017 1.917-.658 2.168-1.913.44-2.198-.171-4.188-.887-6.215-.598-1.703-1.164-3.457-1.413-5.235M100.009 94.391c-.972-.502-1.636-.125-2.35.448a57.428 57.428 0 0 1-2.372 1.791 582.038 582.038 0 0 1-5.063 3.585c-.73.513-1.457 1.035-2.222 1.491-.593.353-1.356.487-1.844.936-2.008 1.842-4.356 1.636-6.753 1.301-1.023-.144-1.678-.714-1.88-1.713-.662-3.24-2.736-10.44 4.7-17.89 1.02-1.02 5.165-.485 5.314-1.838.18-1.631.284-3.299.15-4.928-.213-2.54-2.134-3.988-4.632-4.244-2.843-.291-4.086 1.85-5.544 3.456-1.387 1.529-2.757 3.157-3.5 5.225-.47 1.308-1.41 2.45-2.161 3.65-.205.328-.54.573-.732.906-.463.797-1.016 1.583-1.28 2.451-.479 1.57-.774 3.196-1.145 4.8-.398 1.716-.85 3.423-1.17 5.154-.171.932-.116 1.905-.164 2.86-.054.005-.108.008-.163.014.187 1.809.26 3.642.611 5.42.164.824.931 1.51 1.331 2.308 1.4 2.795 3.718 4.37 6.717 4.812 1.743.258 3.557.245 5.316.088 1.06-.094 2.213-.505 3.08-1.118 1.6-1.13 3.011-2.524 4.52-3.786 1.883-1.574 3.827-3.078 5.664-4.704 1.132-1.001 2.214-2.094 3.142-3.285 1.244-1.593 3.252-2.695 3.274-5.13.007-.879.103-1.567-.844-2.06M218.707 129.147c1.629-2.208 3.791-3.952 6.42-5.277-.807 2.402-1.634 4.769-2.61 7.044-1.053 2.454-2.354 4.997-4.098 8.004-.551.961-1.21 1.849-1.912 2.792-.602.807-1.194 1.617-1.725 2.47-.153-4.695.551-10.463 3.925-15.033zm14.102-7.702c-.03.041-.064.082-.095.124-.004-.042.005-.071.003-.113.029-.005.062-.006.092-.011zm35.771-9.762a1.874 1.874 0 0 1-.213-.152c-.263-.193-.617-.455-1.104-.462-4.338-.04-8.674-.07-13-.024-.622 0-1.841.446-2.06 1.345-.058.238-.116.306-.116.306-.077.04-.36.029-.54.029-.263-.004-.52-.008-.786.025-1.634.197-3.245.578-4.802.954l-1.414.33c-.468.11-.671.477-.787.743-.372.25-.759.484-1.14.72l-.497.305a56.131 56.131 0 0 1-2.476 1.583c-.04.024-.085.042-.125.065l-.003-.28c-2.061.017-3.98.181-5.829.417.46-1.424.939-2.892 1.27-4.397.264-1.2.394-2.43.523-3.62.18-1.683.35-3.274.863-4.743 1.047-3.009.654-5.632.164-8.062-.897-4.428-3.148-7.364-6.884-8.976-2.044-.886-4.67-1.848-7.01-1.428-4.168.756-7.814 2.96-11.34 5.095l-.675.408c-.913.553-1.763 1.23-2.585 1.88-1.866 1.49-3.633 2.9-6.135 2.928-.004-.02-.008-.031-.012-.035a478.29 478.29 0 0 1 1.853-4.912c.813-2.139 1.626-4.28 2.407-6.436.614-1.702 1.239-3.521 1.532-5.419.21-1.329-.776-2.664-1.858-3.296-.85-.494-1.736-.51-2.339-.028-.23.183-.483.35-.737.519-1.115.743-2.647 1.763-2.341 4.093.08.629-.248 1.501-.499 2.104-.599 1.427-1.234 2.842-1.868 4.256-1.209 2.69-2.463 5.473-3.428 8.322-1.107 3.264-.791 6.87.89 10.155.54 1.053 1.556 1.803 2.788 2.055 1.314.263 2.676-.072 3.666-.898a779.071 779.071 0 0 0 4.23-3.574c2.853-2.419 5.802-4.922 8.768-7.286 3.192-2.54 6.752-4.8 11.197-4.086.948.153 2.098.877 2.618 1.652.7 1.033 1.13 2.488 1.095 3.71-.085 3.188-.488 6.397-.932 9.681-.32 2.397-.776 5.007-1.446 8.208a67.02 67.02 0 0 1-.887 3.769c-4.597 1.622-8.259 4.176-10.872 7.725-7.936 10.779-3.437 26.234-3.241 26.883l1.39-.417c.347.309.732.573 1.133.717.18.065.378.095.585.095.866 0 1.866-.525 2.293-1.121 1.413-1.968 2.699-4.049 3.987-6.13l1.685-2.707c1.71-2.735 3.482-5.566 5.077-8.445a39.624 39.624 0 0 1 9.332-11.328c4.502-3.757 8.66-5.774 13.085-6.344 1.86-.245 3.663-.813 5.406-1.362.96-.302 1.914-.604 2.882-.85.21-.055.433-.085.655-.117.799-.11 2.087-.292 2.654-1.7a1.22 1.22 0 0 1 .16-.014c.794-.026 1.585-.04 2.382-.055.856-.017 1.717-.033 2.573-.06.607-.02.876-.515 1.021-.78l.667-1.033-.85-.5zM179.057 17.028c.711-.057 1.529-.693 1.743-1.36.511-1.609-1.343-5.276-2.796-6.11-.701-.399-1.388-.82-2.076-1.238-1.002-.611-2.008-1.222-3.04-1.777-.75-.4-1.542-.675-2.305-.94a34.557 34.557 0 0 1-.976-.35l-1.213-.466-.149 4.074.91.137v.003l-.972.126-3.455 18.417c-.733 3.86-1.469 7.72-2.129 11.589l-.097.567c-.698 4.062-1.42 8.261-1.241 12.594.071 1.761-.307 3.547-.702 5.438-.218 1.02-.433 2.043-.573 3.063-.978 6.879-1.943 13.76-2.822 20.65-.141 1.106-.18 2.234-.217 3.356-.062 1.744-.12 3.392-.553 4.92-1.19 4.198-1.205 8.437-1.216 12.537a189.796 189.796 0 0 1-.028 3.056c-.023 1.088-.125 2.176-.226 3.26l-.398 4.514c-.219 2.453-.44 4.904-.625 7.524-.088 1.178-.233 3.15 2.178 3.999l.918.32.41-1.335c.095-.266.178-.517.215-.812.348-3.001.686-5.999 1.023-8.997l1-8.794c.142-1.246.278-2.492.41-3.736l.17-1.848c.077-.859.152-1.72.247-2.58.033-.283.098-.56.159-.84.092-.407.178-.812.208-1.223l.037-.485c.14-2.101.265-3.912 1.767-5.287.538-.5.7-1.246.749-1.543.174-1.129.33-2.263.481-3.396l.248-1.798c.073-.543.141-1.088.207-1.632.159-1.274.323-2.594.595-3.843.2-.91.476-1.804.748-2.7.364-1.185.737-2.41.944-3.673.302-1.794.403-3.625.505-5.396.035-.66.073-1.319.12-1.975.13-1.814.566-3.568 1.027-5.423.636-2.567 1.293-5.219 1.046-7.812.021-.05.12-.168.301-.404 2.338-3.191 2.97-6.831 3.26-9.646.313-3.041.693-6.29 1.34-9.443.58-2.84 1.35-5.704 2.09-8.474l.683-2.561c.412-1.57.952-2.159 2.07-2.247M197.283 26.776l.381-1.617c.294-1.273.632-2.536.97-3.798.515-1.92 1.045-3.903 1.405-5.905.207-1.157-.2-2.04-.466-2.625-.029-.063-.06-.137-.094-.204.04-.015.084-.029.132-.044.472-.149 1.263-.396.642-4.747-.12-.841.115-1.24.322-1.593.168-.286.448-.765.2-1.319-.276-.628-.94-.798-2-1.02-.252-.053-.585-.305-.908-.544a9.505 9.505 0 0 0-.849-.58c-1.249-.784-3.343-2.08-4.836-1.247-.807.448-1.214 1.358-1.214 2.711 0 .705.027 1.266.052 1.75.036.748.062 1.244-.036 1.818-.258 1.508-.468 2.236-.69 3.005a28.37 28.37 0 0 0-.718 3.03c-.375 2-.723 4.007-1.072 6.013-.305 1.75-.609 3.5-.933 5.246-.207 1.126-.44 2.25-.675 3.373-.393 1.9-.803 3.865-1.079 5.83-.406 2.928-.737 5.868-1.067 8.805-.248 2.172-.49 4.343-.766 6.509-.545 4.273-1.116 8.541-1.68 12.811-.469 3.497-.934 6.997-1.389 10.497-.456 3.55-.9 7.102-1.338 10.652l-.978 7.812c-.043.36-.145.735-.239 1.106-.23.873-.487 1.859-.171 2.772.617 1.837.418 3.667.207 5.607-.101.93-.203 1.86-.218 2.794-.028 1.963-.188 3.913-.38 6.082a102.21 102.21 0 0 1-.335 3.096c-.113.983-.23 1.968-.319 2.951-.102 1.099-.29 3.143 2.2 3.957l1.05.347.253-1.678c.069-.413.127-.789.156-1.167.048-.615.08-1.237.109-1.856.061-1.186.116-2.302.276-3.416.396-2.732.872-5.454 1.347-8.175l.333-1.91c.06-.321.146-.641.234-.957.145-.537.298-1.091.337-1.69.096-1.457.385-1.813.752-2.264.453-.56 1.017-1.26 1.197-3.258.129-1.422.015-3.658-.006-3.658.017-.12 1.518-9.273 1.953-11.333.218-1.042.298-2.098.38-3.12.078-.986.15-1.915.335-2.823.287-1.412.646-2.809 1.01-4.206.41-1.588.835-3.233 1.144-4.884.203-1.099.227-2.209.25-3.283.021-.893.039-1.737.152-2.562.57-4.033 1.27-8.123 1.946-12.077l.113-.654c.024-.134.225-.407.374-.606l.222-.306c1.913-2.778 2.91-5.977 2.802-9.005-.106-2.913.538-5.6 1.22-8.443"/>
        <mask id="d" fill="#fff">
            <use xlink:href="#c"/>
        </mask>
        <path fill="#FFF" d="M15.305 158.943h14.872v-.19H15.305zM138.836 149.253c.86-.312 1.222-.761 1.153-1.5h-.62v-1.81h1.584v1.551c0 1.396-.602 2.069-1.91 2.362l-.207-.603zM146.444 156.639l.655-.778c.979.888 1.915 1.328 3.212 1.328 1.26 0 2.09-.67 2.09-1.597v-.027c0-.872-.468-1.368-2.438-1.782-2.154-.47-3.146-1.168-3.146-2.71v-.03c0-1.473 1.3-2.56 3.08-2.56 1.365 0 2.343.388 3.294 1.153l-.616.818c-.871-.71-1.74-1.018-2.705-1.018-1.217 0-1.994.669-1.994 1.517v.024c0 .885.483 1.383 2.542 1.825 2.09.457 3.053 1.222 3.053 2.658v.026c0 1.608-1.338 2.655-3.2 2.655-1.484 0-2.703-.493-3.827-1.502" mask="url(#d)"/>
    </g>
</svg>
